<?xml version="1.0" standalone="no"?>
<!DOCTYPE svg PUBLIC "-//W3C//DTD SVG 20010904//EN"
 "http://www.w3.org/TR/2001/REC-SVG-20010904/DTD/svg10.dtd">
<svg version="1.0" xmlns="http://www.w3.org/2000/svg"
 width="138.000000pt" height="148.000000pt" viewBox="0 0 138.000000 148.000000"
 preserveAspectRatio="xMidYMid meet">
<metadata>
Created by potrace 1.16, written by Peter Selinger 2001-2019
</metadata>
<g transform="translate(0.000000,148.000000) scale(0.100000,-0.100000)"
fill="#000000" stroke="none">
<path d="M570 1454 c-172 -46 -257 -132 -291 -294 -18 -85 -6 -221 26 -313 29
-86 29 -113 -6 -194 -11 -25 -18 -48 -15 -50 8 -8 74 25 109 57 23 20 41 47
48 72 l11 41 50 -49 c28 -27 58 -67 68 -89 l19 -39 46 47 c43 42 47 50 43 86
l-3 39 26 -19 c43 -30 99 -98 99 -119 0 -28 14 -25 44 11 32 38 34 86 5 123
-12 15 -19 30 -16 33 18 17 201 -110 224 -157 l12 -25 17 40 c9 22 17 65 17
96 0 69 -26 116 -87 159 -70 47 -106 95 -106 138 0 51 11 63 61 69 36 4 55 -1
103 -26 32 -17 60 -30 62 -28 2 2 7 31 10 65 14 134 -62 223 -218 252 -31 6
-60 20 -75 34 -53 53 -172 70 -283 40z m387 -169 c48 -14 103 -54 103 -73 0
-6 -36 -12 -79 -13 -62 -3 -86 -9 -109 -26 -28 -21 -72 -22 -72 -2 0 4 12 35
26 68 30 69 40 73 131 46z"/>
<path d="M160 348 c-7 -24 -22 -82 -36 -130 -28 -102 -28 -98 -10 -98 7 0 17
15 22 33 10 31 11 32 69 32 58 0 59 0 67 -32 5 -20 15 -33 24 -33 9 0 14 6 12
12 -3 7 -20 68 -38 136 l-33 122 -33 0 c-31 0 -34 -3 -44 -42z"/>
<path d="M588 313 c-46 -7 -32 -22 24 -25 42 -2 54 -7 56 -22 5 -23 -14 -36
-55 -36 -39 0 -63 -23 -63 -60 0 -43 37 -65 86 -51 24 7 43 7 55 1 24 -13 29
-13 29 5 0 8 -4 15 -10 15 -6 0 -10 29 -10 68 0 39 -5 75 -12 85 -14 18 -58
27 -100 20z"/>
</g>
</svg>
